HIERARCHY
ROOT hip
{
  OFFSET 0 0 0
  CHANNELS 6 Xposition Yposition Zposition Zrotation Yrotation Xrotation
  JOINT abdomen
  {
    OFFSET 0 20.6881 -0.73152
    CHANNELS 3 Zrotation Xrotation Yrotation
    JOINT chest
    {
      OFFSET 0 11.7043 -0.48768
      CHANNELS 3 Zrotation Xrotation Yrotation
      JOINT neck
      {
        OFFSET 0 22.1894 -2.19456
        CHANNELS 3 Zrotation Xrotation Yrotation
        JOINT head
        {
          OFFSET -0.24384 7.07133 1.2192
          CHANNELS 3 Zrotation Xrotation Yrotation
          JOINT leftEye
          {
            OFFSET 4.14528 8.04674 8.04672
            CHANNELS 3 Zrotation Xrotation Yrotation
            End Site
            {
              OFFSET 1 0 0
            }
          }
          JOINT rightEye
          {
            OFFSET -3.6576 8.04674 8.04672
            CHANNELS 3 Zrotation Xrotation Yrotation
            End Site
            {
              OFFSET 1 0 0
            }
          }
        }
      }
      JOINT rCollar
      {
        OFFSET -2.68224 19.2634 -4.8768
        CHANNELS 3 Zrotation Xrotation Yrotation
        JOINT rShldr
        {
          OFFSET -8.77824 -1.95073 1.46304
          CHANNELS 3 Zrotation Xrotation Yrotation
          JOINT rForeArm
          {
            OFFSET -28.1742 -1.7115 0.48768
            CHANNELS 3 Zrotation Xrotation Yrotation
            JOINT rHand
            {
              OFFSET -22.5879 0.773209 7.07136
              CHANNELS 3 Zrotation Xrotation Yrotation
              JOINT rThumb1
              {
                OFFSET -1.2192 -0.487915 3.41376
                CHANNELS 3 Zrotation Xrotation Yrotation
                JOINT rThumb2
                {
                  OFFSET -3.37035 -0.52449 3.41376
                  CHANNELS 3 Zrotation Xrotation Yrotation
                  End Site
                  {
                    OFFSET -1.78271 -1.18214 1.43049
                  }
                }
              }
              JOINT rIndex1
              {
                OFFSET -7.75947 0.938293 5.60832
                CHANNELS 3 Zrotation Xrotation Yrotation
                JOINT rIndex2
                {
                  OFFSET -2.54057 -0.884171 1.56538
                  CHANNELS 3 Zrotation Xrotation Yrotation
                  End Site
                  {
                    OFFSET -1.62519 -0.234802 1.16502
                  }
                }
              }
              JOINT rMid1
              {
                OFFSET -8.24714 1.18213 3.41376
                CHANNELS 3 Zrotation Xrotation Yrotation
                JOINT rMid2
                {
                  OFFSET -3.10165 -0.590103 1.0647
                  CHANNELS 3 Zrotation Xrotation Yrotation
                  End Site
                  {
                    OFFSET -2.48547 -0.328903 0.83742
                  }
                }
              }
              JOINT rRing1
              {
                OFFSET -8.82822 0.546677 1.51678
                CHANNELS 3 Zrotation Xrotation Yrotation
                JOINT rRing2
                {
                  OFFSET -2.60934 -0.819778 -0.0198488
                  CHANNELS 3 Zrotation Xrotation Yrotation
                  End Site
                  {
                    OFFSET -2.33842 -0.294052 0.168128
                  }
                }
              }
              JOINT rPinky1
              {
                OFFSET -8.27202 -0.0477905 -0.4584
                CHANNELS 3 Zrotation Xrotation Yrotation
                JOINT rPinky2
                {
                  OFFSET -1.82734 -0.647385 -0.700984
                  CHANNELS 3 Zrotation Xrotation Yrotation
                  End Site
                  {
                    OFFSET -1.69225 -0.51767 -0.607171
                  }
                }
              }
            }
          }
        }
      }
      JOINT lCollar
      {
        OFFSET 2.68224 19.2634 -4.8768
        CHANNELS 3 Zrotation Xrotation Yrotation
        JOINT lShldr
        {
          OFFSET 8.77824 -1.95073 1.46304
          CHANNELS 3 Zrotation Xrotation Yrotation
          JOINT lForeArm
          {
            OFFSET 28.1742 -1.7115 0.48768
            CHANNELS 3 Zrotation Xrotation Yrotation
            JOINT lHand
            {
              OFFSET 22.5879 0.773209 7.07136
              CHANNELS 3 Zrotation Xrotation Yrotation
              JOINT lThumb1
              {
                OFFSET 1.2192 -0.487915 3.41376
                CHANNELS 3 Zrotation Xrotation Yrotation
                JOINT lThumb2
                {
                  OFFSET 3.37035 -0.52449 3.41376
                  CHANNELS 3 Zrotation Xrotation Yrotation
                  End Site
                  {
                    OFFSET 1.78271 -1.18214 1.43049
                  }
                }
              }
              JOINT lIndex1
              {
                OFFSET 7.75947 0.938293 5.60832
                CHANNELS 3 Zrotation Xrotation Yrotation
                JOINT lIndex2
                {
                  OFFSET 2.54057 -0.884171 1.56538
                  CHANNELS 3 Zrotation Xrotation Yrotation
                  End Site
                  {
                    OFFSET 1.62519 -0.234802 1.16502
                  }
                }
              }
              JOINT lMid1
              {
                OFFSET 8.24714 1.18213 3.41376
                CHANNELS 3 Zrotation Xrotation Yrotation
                JOINT lMid2
                {
                  OFFSET 3.10165 -0.590103 1.0647
                  CHANNELS 3 Zrotation Xrotation Yrotation
                  End Site
                  {
                    OFFSET 2.48547 -0.328903 0.83742
                  }
                }
              }
              JOINT lRing1
              {
                OFFSET 8.82822 0.546677 1.51678
                CHANNELS 3 Zrotation Xrotation Yrotation
                JOINT lRing2
                {
                  OFFSET 2.60934 -0.819778 -0.0198488
                  CHANNELS 3 Zrotation Xrotation Yrotation
                  End Site
                  {
                    OFFSET 2.33842 -0.294052 0.168128
                  }
                }
              }
              JOINT lPinky1
              {
                OFFSET 8.27202 -0.0477905 -0.4584
                CHANNELS 3 Zrotation Xrotation Yrotation
                JOINT lPinky2
                {
                  OFFSET 1.82734 -0.647385 -0.700984
                  CHANNELS 3 Zrotation Xrotation Yrotation
                  End Site
                  {
                    OFFSET 1.69225 -0.51767 -0.607171
                  }
                }
              }
            }
          }
        }
      }
    }
  }
  JOINT rButtock
  {
    OFFSET -8.77824 4.35084 1.2192
    CHANNELS 3 Zrotation Xrotation Yrotation
    JOINT rThigh
    {
      OFFSET 0 -1.70687 -2.19456
      CHANNELS 3 Zrotation Xrotation Yrotation
      JOINT rShin
      {
        OFFSET 0 -36.8199 0.73152
        CHANNELS 3 Zrotation Xrotation Yrotation
        JOINT rFoot
        {
          OFFSET 0.73152 -45.1104 -5.12064
          CHANNELS 3 Zrotation Xrotation Yrotation
          End Site
          {
            OFFSET -1.1221 -3.69964 12.103
          }
        }
      }
    }
  }
  JOINT lButtock
  {
    OFFSET 8.77824 4.35084 1.2192
    CHANNELS 3 Zrotation Xrotation Yrotation
    JOINT lThigh
    {
      OFFSET 0 -1.70687 -2.19456
      CHANNELS 3 Zrotation Xrotation Yrotation
      JOINT lShin
      {
        OFFSET 0 -36.8199 0.73152
        CHANNELS 3 Zrotation Xrotation Yrotation
        JOINT lFoot
        {
          OFFSET -0.73152 -45.1104 -5.12064
          CHANNELS 3 Zrotation Xrotation Yrotation
          End Site
          {
            OFFSET 1.1221 -3.69964 12.103
          }
        }
      }
    }
  }
}
MOTION
Frames:	4
Frame Time:	0.03333
-1.4134897850453854 33.54410529136658 0.05119796842336655 -2.7493163461306818 2.4288690565962483 1.3708987942574837 -0.06734054257444821 8.593290659903884 1.897067753054705 2.202263870502735 -4.239374620648208 0.6742267559921762 -2.9085927290373825 7.629112128360911 -0.8217565475477773 4.393573825124062 -13.600381104582464 -2.015131201396372 0.38839657271865946 0.5941277935741144 -1.11414525988924 -0.5591216866956239 0.929853095703956 0.4307561519710356 0.4803102149361095 0.9860763314654449 0.7687704479269043 23.945687003580904 16.75221031689893 8.342218882429739 -12.410411887004502 -15.33547540378196 33.49405240663778 -2.201489924692408 -5.543527525675858 -2.3589821341218546 0.5618796957381339 0.35213696604491296 0.6396554333430393 -0.054846392354775945 0.7896822993705148 1.2561324062942287 -0.09844295621843843 0.045073325467413286 0.12372504817358608 3.947752010071697 1.779682094266456 0.956982927252364 0.6492539835610228 -0.0999037629271749 0.19485385111751874 1.6828333202085544 1.4862231232985639 -0.9717900303210112 0.1907988798650732 -0.32459967102383136 0.02180128014475304 5.07617524681232 -0.6423668050001228 -0.880206585061249 -0.11882509447540272 0.19505667571935636 1.1039147037296189 1.3813684070380554 0.3603424511569048 -0.29693153519146176 0.4731792839992046 0.7819145066543591 0.2340406474178653 -30.213908699252514 16.523538998581486 -11.677876659841573 12.499863459469575 -14.654751430341808 -31.221621149017857 2.1404365712489564 -5.896599640667681 2.4995499885616557 0.9241327055523646 0.12329810798960739 0.5004030306487003 0.23388035141578153 1.1641876013386905 0.3648988009831115 0.1309142891824873 -0.10122373033481293 -0.602995300107495 -3.7999774522838865 2.8986746540322894 -0.09677912480466597 0.8274926791509716 0.6936768935925511 -0.9112193791528093 -1.240055421648488 -1.0574761408409963 -1.1768157673403978 -0.2720189804827956 0.49727469728712864 0.28078710242766725 -4.910094928275229 -0.7122996711688553 0.2928972946303643 0.7446311186570511 -0.9631766281690962 -0.710975041356696 -1.0889898866194947 0.65321511975366 -0.09418171858914383 -0.8067940043146594 0.6217509462074972 -0.3160893887201277 -15.606471696838678 -18.426788286278466 -14.565443291849306 -2.7586751993974805 31.654142878208912 3.6090292687524252 -1.7891779782034778 -5.473381482899827 -4.689977995006405 0.705105934508098 -1.2874520252899107 0.09511842834100083 18.256106981561725 -18.448501457649936 16.233843355124566 2.390991602223708 31.317325759668076 -2.6300518517121505 3.441535527943964 -4.31728744228419 6.65433058190514
-2.504399325698614 39.964210987091064 0.04643360152840614 -3.4654520756529985 3.074338154861732 1.4622404081319451 -0.5440865727025747 10.07152886517588 2.3217832163546728 2.45393243575561 -5.5467923560991235 0.8298730000767209 -3.0782091645738365 9.36343803127878 -1.377802407961074 5.319043113319633 -16.10519844965467 -2.7765039141219177 0.3253051281794732 0.3180096056918269 -0.7962523543826853 -0.29519186466551833 0.7442345941592201 0.42166335591675036 0.3926847575786639 0.6505864574185571 0.5753576866829789 29.45053943685521 19.95327580162108 10.000368539308102 -14.920956345695762 -18.374979593876628 40.71183773657583 -2.680566863596507 -6.895759412931697 -2.9051022889280946 0.4275659467005372 0.18035898907956163 0.46671381625869995 -0.2409558137461065 0.7201587109434541 1.1098873839936776 -0.008706196675091956 -0.05092036760334088 0.09296425070980228 4.815039185596161 2.581525918980149 0.8656234908530371 0.6165844417089114 -0.2690279979565647 0.2468404219224692 1.7989591292600533 1.3435289455927732 -0.8187720750455991 0.015336816255293397 -0.3261162131434122 0.06860482126198815 6.270477365645009 -0.39059023738099713 -0.7596387518108616 -0.05564305654822124 0.0407674514846756 0.8674482185784883 1.5391210174296086 0.09863033285336421 -0.2628567352784731 0.37794416881314497 0.6692719873578609 0.14016489995919687 -36.484254583756 19.96419898165122 -14.828659999441381 14.955740791591346 -17.663210703111474 -38.33795084902454 2.79769969866376 -7.639796251770104 2.893162691372089 0.6928132481885148 0.026306260144892547 0.2823887817880352 0.15457563861257173 0.9165405234030723 0.26015528874002725 0.2236397100549639 -0.1328304107087271 -0.4090231036818633 -4.557195702446772 3.5414022851196596 -0.16102580512850997 0.6474044430389775 0.6883913410311662 -0.8494665716496661 -1.6086124292623762 -0.6228633065468572 -0.8611239970155854 -0.3530111768978217 0.29388270950069734 -0.05506797329640468 -5.974415558994813 -0.36947705543942994 0.09665379350143888 0.8240573074418667 -0.8103055219608394 -0.5512902878428224 -1.5667621526704156 0.29875226085294615 0.10964822839738814 -0.5870589213091214 0.6173987816848767 -0.26726143356076437 -19.207615512194323 -22.41942317693361 -17.579445263130438 -3.528112017655284 38.55882892149899 4.190027357668512 -2.4352501608283323 -6.6002978091548155 -5.984562658780513 0.6286406860893359 -0.9464904760267551 -0.02312907492249947 22.587705377704385 -21.966569682130714 19.56027183942042 2.9039699716297536 38.38788294695191 -3.5439034150163535 3.9124331018735616 -5.520228896643298 8.201168645879806
-3.3307982608675957 45.052868127822876 0.036925263702869415 -4.097693445373695 3.5405066765647417 1.6374447921831157 -0.9117577901584767 11.214863258648286 2.6943636322765214 2.5745211330994775 -6.582342949374144 0.9508995765794099 -3.3379614721528332 10.750398442256373 -1.8159607507646844 6.027982598221107 -18.13246518965886 -3.291994939368882 0.2559864454275129 0.15592222641569561 -0.5361662213080044 -0.1420790337936665 0.5980617157317772 0.3867544725122267 0.2962686333160003 0.40784158767715684 0.44824279694801694 33.860734527324496 22.526441995943955 11.351556688281399 -16.948156491355547 -20.89017455761902 46.57174047838032 -3.104814458938329 -7.997673404843031 -3.4361102233088583 0.3062416699995709 0.06018437195412603 0.32281298958649124 -0.2859136129670114 0.5833705124356088 0.9440982022699581 0.049537734544089315 -0.12045959076029851 0.08041249744943448 5.496396659081831 3.2198395403163977 0.7578376095823881 0.5233093506908074 -0.30682935975288295 0.26099801668973044 1.979525638696507 1.2331123209137587 -0.6289803812788383 -0.08010221743008814 -0.3034812863991073 0.09742616516660567 7.205963126258403 -0.15115523462270272 -0.6383847513531524 -0.014526051456471727 -0.056705964717164804 0.670374529300289 1.669206132319027 -0.10494484274104099 -0.21720401767037228 0.3025910406099049 0.545837022120802 0.09473168221946209 -41.48081116918713 22.667560534385586 -17.435529762223684 16.89278244020696 -20.06892285710044 -44.08974194155149 3.318271103992744 -9.045195612185791 3.184263859694152 0.5077574368375115 -0.017449452462516522 0.15669622558687557 0.10782608867330212 0.7082440862666015 0.17759052130988506 0.27136861840776344 -0.13299398840326362 -0.27050195811553873 -5.1862847264220955 3.9930967821977656 -0.2029610855591255 0.5426016468883316 0.6269056045967412 -0.7434933051908622 -1.9055290767758815 -0.26136850109135074 -0.6579574588326174 -0.3532878529200601 0.1635098728924922 -0.18552202512270946 -6.904040163526691 -0.06796870653467782 0.029879356215308357 0.7737491755841676 -0.6472722682063671 -0.4467564837515987 -1.8510248075294145 0.057986918671233095 0.1965623322249475 -0.40119005064262225 0.5436511481429863 -0.2384872873305287 -22.125287910516178 -25.545568316649888 -19.96616436858489 -4.085179685040585 44.08029920502394 4.690340421919239 -2.921846070791558 -7.480767249777404 -7.015628379091774 0.5514994623861541 -0.6993969635790253 -0.08502400905731701 26.15064282239027 -24.7538605993862 22.25163616487766 3.4101580657837487 44.039434183219754 -4.267921396284276 4.249795354887532 -6.511673970239785 9.460349877864799
-3.935696557164192 49.12175536155701 0.038916151970624924 -4.635790689226109 3.8881543406951047 1.8217279917451141 -1.20831499896691 12.112391096722982 3.0103772752659705 2.6179152458872728 -7.394957875687242 1.0307930463529895 -3.618260269415697 11.846514030449189 -2.1545460345269105 6.582549562596538 -19.769559080873368 -3.625134427928492 0.19474248701753577 0.07015233935667206 -0.3355496915629783 -0.04993818106460776 0.4798072888976144 0.33909309231876045 0.2068410198738762 0.23513619908856476 0.35033443643426426 37.4095471408068 24.59303013499991 12.450036375700686 -18.58698183552465 -22.955306158834468 51.331473914719595 -3.479496438690426 -8.898069068595484 -3.908790903498652 0.20809569360789582 -0.004405045127835098 0.19663586348023093 -0.2641598873473439 0.4417445122829845 0.7803380669774084 0.07606058639086531 -0.1702882753547745 0.0753929487397098 6.029817357786902 3.740352889037437 0.6587627808244442 0.4222999508917367 -0.2832082177254516 0.24670088329215992 2.1707852361654387 1.138010687901205 -0.46196320624754456 -0.12484918792122175 -0.26833612113798355 0.10624964899635143 7.955122180087497 0.05812202835075241 -0.5057569918234911 0.01378232122909403 -0.10346917503477446 0.511044998984109 1.7615068541633463 -0.2750119640410099 -0.17984643140711978 0.24912138494013608 0.43361429265399504 0.06875439173264085 -45.47665624875218 24.79650317792188 -19.570640066580502 18.433304286746658 -21.987635693078328 -48.730735954264674 3.7406427451903395 -10.170173018490143 3.389477106750596 0.35799860237410613 -0.026601959311186498 0.09886330633708511 0.08148421015910501 0.5387843181942349 0.10757131728117535 0.2940260901124147 -0.11596080395414764 -0.17777178812715486 -5.71717654758697 4.331499358399694 -0.2446558819659758 0.480779256833019 0.5383480398610003 -0.6240707025652156 -2.1520974117094607 0.03454026663275448 -0.5222477898833994 -0.3073331662454507 0.0774106426494271 -0.22801679409588427 -7.690600052590304 0.16925336829338536 -0.0011704703081580445 0.6587971452137058 -0.4906014957463204 -0.3657983582411434 -2.0209291782280667 -0.11474749822133157 0.22345636216443138 -0.2556592099971606 0.44356337031461773 -0.21465654387294264 -24.495459175158985 -28.025485353329163 -21.880210477812366 -4.48991065515933 48.51199231590584 5.1163213912063625 -3.302854940149202 -8.172107898508694 -7.854775602122609 0.4728042639250886 -0.5124902243238014 -0.10256540226936425 29.066197862069423 -26.980290532946086 24.4430460110156 3.86549006548171 48.58038300006518 -4.843898442386758 4.480028652090791 -7.318946407961462 10.470222374955156
